M48
;Layer_Color=9474304
;FILE_FORMAT=4:4
METRIC
;TYPE=PLATED
T1F00S00C0.3000
T2F00S00C0.3300
T3F00S00C0.6000
T4F00S00C0.7000
T5F00S00C0.8890
T6F00S00C1.0000
;TYPE=NON_PLATED
T8F00S00C0.8000
T9F00S00C2.0000
T10F00S00C2.2000
T11F00S00C3.1750
%
T01
X00117500Y00112500
Y00120000
Y00127500
Y00135000
Y00142500
Y00150000
X00130000Y00147500
Y00132500
Y00117500
X00163000Y00110000
X00165000Y00095000
Y00080000
Y00065000
X00197000Y00074000
X00206000Y00092000
X00222500Y00127500
Y00137500
X00245000
Y00127500
X00250000Y00116000
X00286000Y00129000
X00300000Y00139000
Y00165000
X00286500
X00280000Y00176000
X00267000Y00174500
X00268000Y00191500
X00266000Y00201000
X00293000Y00194000
X00300000Y00240000
Y00252000
X00245000Y00243000
X00210000Y00208000
Y00170000
X00217000Y00163000
X00225000
X00157000Y00202000
X00132420Y00200380
X00091000Y00209000
Y00220000
Y00230000
Y00240000
Y00250000
Y00260000
X00085000Y00270000
X00075000
X00065000
X00055000
X00045000
X00035000
X00025000
Y00260000
Y00250000
Y00240000
Y00230000
Y00220000
Y00210000
X00015000Y00225000
Y00245000
Y00265000
Y00280000
X00030000
X00050000
X00070000
X00090000
X00146000Y00282000
X00179000Y00271000
Y00249000
Y00227000
X00272000Y00085000
X00261000Y00074000
X00305000Y00080000
Y00065000
X00255000Y00020000
X00320000Y00065000
Y00080000
X00322000Y00118000
Y00136000
X00311000Y00139000
Y00165000
X00329000Y00186000
X00323000Y00193000
X00358000Y00204000
X00380000
X00399000Y00193000
X00394000Y00185000
X00399000Y00178000
X00405000Y00155000
Y00145000
X00404920Y00132080
Y00106080
X00441000Y00095000
Y00087000
X00463000Y00106000
X00464000Y00119000
X00489000
X00485000Y00166000
X00464000Y00171000
X00462500Y00210000
Y00236000
Y00249000
Y00262500
X00441000Y00271000
X00431000
X00379000
X00369000Y00273000
Y00267000
X00386000Y00263000
X00390000Y00243000
X00404920Y00243080
X00405000Y00232000
X00434000Y00188000
X00441000Y00153000
Y00144000
X00530000Y00145000
Y00135000
X00570000Y00127000
X00574000Y00104000
X00583000
X00597000Y00115000
X00615000Y00125000
X00634000Y00123000
Y00132000
Y00099000
X00616000
X00615000Y00085000
Y00065000
X00560000Y00062000
X00564000Y00054000
X00547000Y00089000
Y00095000
X00535000Y00090000
X00483000Y00048000
X00468000
X00368000Y00075000
X00312000Y00240000
Y00252000
X00490000Y00232000
X00523240Y00231140
X00530000Y00219000
X00560000Y00230000
X00570000
Y00246000
X00590999Y00246000
X00597000Y00230000
X00599000Y00207000
Y00185000
X00577000
Y00207000
X00633000Y00217000
X00625000Y00274000
X00576000Y00281000
X00561340Y00276860
X00522000Y00272000
X00508000Y00269240
Y00248920
X00502920Y00203200
X00670000Y00186000
X00652000Y00160000
X00678000Y00136000
X00675000Y00127000
Y00115000
X00625000Y00286000
X00576000Y00287000
X00570000Y00296000
X00564000Y00314000
X00575000Y00335000
X00589280Y00304800
X00560000Y00365000
X00518920Y00359080
X00508000Y00360000
X00504920Y00374080
X00487000Y00374000
X00474000
X00473920Y00405080
X00486920
Y00437080
X00499920
X00516000Y00428000
X00525000Y00440000
X00549920Y00433080
X00553000Y00414000
X00517999Y00406999
X00518920Y00391080
X00507920
X00440000Y00391000
X00416000Y00375000
X00406000Y00348000
X00434000
X00445000Y00355000
X00451000Y00351000
X00452999Y00331999
X00444000Y00324000
X00450000Y00300000
X00482000Y00304000
X00518160Y00327660
X00599000Y00398000
X00575000Y00435000
Y00456000
X00655000Y00460000
Y00435000
Y00410000
Y00510000
X00460000Y00428000
X00416000Y00414000
X00396000Y00434000
Y00394000
X00375000Y00414000
Y00454000
X00396000Y00474000
X00416000Y00455000
X00349000Y00474000
X00350000Y00434000
Y00394000
X00332000Y00404000
X00322000
X00332000Y00384000
X00350000Y00365000
Y00350000
X00345000Y00340000
Y00330000
X00350000Y00320000
Y00305000
X00366850Y00307150
X00377000Y00350000
X00375000Y00374000
X00310000Y00470000
X00307000Y00418000
X00290000Y00420000
X00280000Y00423000
Y00440000
X00240000Y00437000
Y00455000
X00187960Y00463550
Y00478790
X00154156Y00425879
X00104140Y00421640
X00102000Y00396000
X00091000
X00080000
X00066040Y00393700
X00058420Y00388620
Y00373380
X00066250Y00365250
X00074500Y00365750
X00088000Y00366000
X00036420Y00335380
X00043500Y00317250
X00024000Y00303000
X00018000
X00125000Y00309000
X00139700Y00335280
X00185000Y00283000
X00284000Y00302000
X00290000Y00310000
X00260000Y00352000
X00239000
X00280000Y00395000
X00010000Y00522500
T02
X00125000Y00377000
Y00389000
X00137000
X00149000
Y00377000
X00137000
Y00401000
X00149000
X00125000
T03
X00190000Y00020000
X00215000
T04
X00630000Y00049600
Y00075000
X00620000Y00398000
Y00418000
T05
X00247840Y00405200
X00268160
X00258000Y00456000
T06
X00279400Y00025400
X00304800
X00187150Y00130100
Y00155500
X00330200Y00025400
X00355600
X00381000
X00406400
X00431800
X00457200
X00508000
X00533400
X00558800
X00584200
X00609600
X00635000
Y00482600
X00609600
X00584200
X00558800
X00533400
X00508000
X00482600
X00457200
Y00508000
X00482600
X00508000
X00533400
X00558800
X00584200
X00609600
X00635000
X00416560
X00391160
X00365760
X00340360
X00314960
X00289560
X00264160
X00238760
X00213360
X00187960
X00187150Y00428700
Y00403300
Y00377900
Y00352500
X00076200Y00457200
X00050800
Y00482600
Y00508000
X00076200
Y00482600
T08
X00385100Y00102800
Y00252800
T09
X00196850Y00216700
Y00316700
T10
X00022790Y00083820
T11
X00139700Y00025400
X00660400Y00076200
Y00355600
X00152400Y00508000
M30
