%FSLAX44Y44*%
%MOMM*%
G71*
G01*
G75*
G04 Layer_Color=8388736*
%ADD10C,0.3000*%
%ADD11C,0.2000*%
%ADD12C,0.5000*%
%ADD13C,0.2540*%
%ADD14C,1.5000*%
G04:AMPARAMS|DCode=15|XSize=0.7mm|YSize=0.75mm|CornerRadius=0.175mm|HoleSize=0mm|Usage=FLASHONLY|Rotation=180.000|XOffset=0mm|YOffset=0mm|HoleType=Round|Shape=RoundedRectangle|*
%AMROUNDEDRECTD15*
21,1,0.7000,0.4000,0,0,180.0*
21,1,0.3500,0.7500,0,0,180.0*
1,1,0.3500,-0.1750,0.2000*
1,1,0.3500,0.1750,0.2000*
1,1,0.3500,0.1750,-0.2000*
1,1,0.3500,-0.1750,-0.2000*
%
%ADD15ROUNDEDRECTD15*%
%ADD16R,0.4000X0.6500*%
%ADD17R,0.6300X0.8300*%
%ADD18R,1.1000X0.6000*%
%ADD19O,1.8000X0.4000*%
G04:AMPARAMS|DCode=20|XSize=0.7mm|YSize=0.75mm|CornerRadius=0.175mm|HoleSize=0mm|Usage=FLASHONLY|Rotation=270.000|XOffset=0mm|YOffset=0mm|HoleType=Round|Shape=RoundedRectangle|*
%AMROUNDEDRECTD20*
21,1,0.7000,0.4000,0,0,270.0*
21,1,0.3500,0.7500,0,0,270.0*
1,1,0.3500,-0.2000,-0.1750*
1,1,0.3500,-0.2000,0.1750*
1,1,0.3500,0.2000,0.1750*
1,1,0.3500,0.2000,-0.1750*
%
%ADD20ROUNDEDRECTD20*%
%ADD21O,1.5500X0.3500*%
%ADD22R,1.2000X0.6000*%
G04:AMPARAMS|DCode=23|XSize=1.2mm|YSize=2.2mm|CornerRadius=0.15mm|HoleSize=0mm|Usage=FLASHONLY|Rotation=180.000|XOffset=0mm|YOffset=0mm|HoleType=Round|Shape=RoundedRectangle|*
%AMROUNDEDRECTD23*
21,1,1.2000,1.9000,0,0,180.0*
21,1,0.9000,2.2000,0,0,180.0*
1,1,0.3000,-0.4500,0.9500*
1,1,0.3000,0.4500,0.9500*
1,1,0.3000,0.4500,-0.9500*
1,1,0.3000,-0.4500,-0.9500*
%
%ADD23ROUNDEDRECTD23*%
G04:AMPARAMS|DCode=24|XSize=0.9mm|YSize=1.7mm|CornerRadius=0.1125mm|HoleSize=0mm|Usage=FLASHONLY|Rotation=180.000|XOffset=0mm|YOffset=0mm|HoleType=Round|Shape=RoundedRectangle|*
%AMROUNDEDRECTD24*
21,1,0.9000,1.4750,0,0,180.0*
21,1,0.6750,1.7000,0,0,180.0*
1,1,0.2250,-0.3375,0.7375*
1,1,0.2250,0.3375,0.7375*
1,1,0.2250,0.3375,-0.7375*
1,1,0.2250,-0.3375,-0.7375*
%
%ADD24ROUNDEDRECTD24*%
%ADD25R,0.9000X0.8000*%
G04:AMPARAMS|DCode=26|XSize=1mm|YSize=0.9mm|CornerRadius=0.225mm|HoleSize=0mm|Usage=FLASHONLY|Rotation=180.000|XOffset=0mm|YOffset=0mm|HoleType=Round|Shape=RoundedRectangle|*
%AMROUNDEDRECTD26*
21,1,1.0000,0.4500,0,0,180.0*
21,1,0.5500,0.9000,0,0,180.0*
1,1,0.4500,-0.2750,0.2250*
1,1,0.4500,0.2750,0.2250*
1,1,0.4500,0.2750,-0.2250*
1,1,0.4500,-0.2750,-0.2250*
%
%ADD26ROUNDEDRECTD26*%
%ADD27O,0.9000X0.3000*%
%ADD28O,0.3000X0.9000*%
%ADD29R,3.4000X3.3000*%
G04:AMPARAMS|DCode=30|XSize=1mm|YSize=0.9mm|CornerRadius=0.225mm|HoleSize=0mm|Usage=FLASHONLY|Rotation=270.000|XOffset=0mm|YOffset=0mm|HoleType=Round|Shape=RoundedRectangle|*
%AMROUNDEDRECTD30*
21,1,1.0000,0.4500,0,0,270.0*
21,1,0.5500,0.9000,0,0,270.0*
1,1,0.4500,-0.2250,-0.2750*
1,1,0.4500,-0.2250,0.2750*
1,1,0.4500,0.2250,0.2750*
1,1,0.4500,0.2250,-0.2750*
%
%ADD30ROUNDEDRECTD30*%
%ADD31R,1.9000X1.1750*%
%ADD32R,1.9000X2.3750*%
%ADD33O,1.3800X0.4500*%
%ADD34R,2.1000X1.3750*%
%ADD35C,1.0000*%
%ADD36R,0.8000X0.4000*%
%ADD37R,1.6000X3.0000*%
%ADD38R,5.8000X6.2000*%
%ADD39R,1.7000X1.6000*%
%ADD40O,0.8000X0.3500*%
%ADD41O,0.3500X0.8000*%
%ADD42R,6.4000X6.4000*%
%ADD43R,1.3000X0.7000*%
G04:AMPARAMS|DCode=44|XSize=0.55mm|YSize=0.95mm|CornerRadius=0.0688mm|HoleSize=0mm|Usage=FLASHONLY|Rotation=270.000|XOffset=0mm|YOffset=0mm|HoleType=Round|Shape=RoundedRectangle|*
%AMROUNDEDRECTD44*
21,1,0.5500,0.8125,0,0,270.0*
21,1,0.4125,0.9500,0,0,270.0*
1,1,0.1375,-0.4063,-0.2062*
1,1,0.1375,-0.4063,0.2062*
1,1,0.1375,0.4063,0.2062*
1,1,0.1375,0.4063,-0.2062*
%
%ADD44ROUNDEDRECTD44*%
%ADD45R,0.4500X0.6000*%
G04:AMPARAMS|DCode=46|XSize=0.55mm|YSize=0.3mm|CornerRadius=0.0375mm|HoleSize=0mm|Usage=FLASHONLY|Rotation=180.000|XOffset=0mm|YOffset=0mm|HoleType=Round|Shape=RoundedRectangle|*
%AMROUNDEDRECTD46*
21,1,0.5500,0.2250,0,0,180.0*
21,1,0.4750,0.3000,0,0,180.0*
1,1,0.0750,-0.2375,0.1125*
1,1,0.0750,0.2375,0.1125*
1,1,0.0750,0.2375,-0.1125*
1,1,0.0750,-0.2375,-0.1125*
%
%ADD46ROUNDEDRECTD46*%
%ADD47R,0.6500X1.3500*%
%ADD48O,1.4000X0.6000*%
%ADD49C,0.4000*%
%ADD50C,0.6000*%
%ADD51C,0.6300*%
%ADD52C,0.4500*%
%ADD53C,1.0000*%
%ADD54C,0.8000*%
%ADD55C,0.3500*%
%ADD56C,0.7000*%
%ADD57C,1.6000*%
%ADD58R,1.6000X1.6000*%
%ADD59C,0.8890*%
%ADD60C,0.8000*%
%ADD61R,1.6000X1.6000*%
%ADD62O,4.5000X2.0000*%
%ADD63O,2.0000X4.5000*%
%ADD64C,1.2000*%
%ADD65C,3.1750*%
%ADD66C,2.0000*%
%ADD67C,0.5000*%
%ADD68C,0.6600*%
%ADD69C,0.7874*%
%ADD70C,1.7000*%
G04:AMPARAMS|DCode=71|XSize=0.9mm|YSize=0.95mm|CornerRadius=0.275mm|HoleSize=0mm|Usage=FLASHONLY|Rotation=180.000|XOffset=0mm|YOffset=0mm|HoleType=Round|Shape=RoundedRectangle|*
%AMROUNDEDRECTD71*
21,1,0.9000,0.4000,0,0,180.0*
21,1,0.3500,0.9500,0,0,180.0*
1,1,0.5500,-0.1750,0.2000*
1,1,0.5500,0.1750,0.2000*
1,1,0.5500,0.1750,-0.2000*
1,1,0.5500,-0.1750,-0.2000*
%
%ADD71ROUNDEDRECTD71*%
%ADD72R,0.6000X0.8500*%
%ADD73R,0.8300X1.0300*%
%ADD74R,1.3000X0.8000*%
%ADD75O,2.0000X0.6000*%
G04:AMPARAMS|DCode=76|XSize=0.9mm|YSize=0.95mm|CornerRadius=0.275mm|HoleSize=0mm|Usage=FLASHONLY|Rotation=270.000|XOffset=0mm|YOffset=0mm|HoleType=Round|Shape=RoundedRectangle|*
%AMROUNDEDRECTD76*
21,1,0.9000,0.4000,0,0,270.0*
21,1,0.3500,0.9500,0,0,270.0*
1,1,0.5500,-0.2000,-0.1750*
1,1,0.5500,-0.2000,0.1750*
1,1,0.5500,0.2000,0.1750*
1,1,0.5500,0.2000,-0.1750*
%
%ADD76ROUNDEDRECTD76*%
%ADD77O,1.7500X0.5500*%
%ADD78R,1.4000X0.8000*%
G04:AMPARAMS|DCode=79|XSize=1.4mm|YSize=2.4mm|CornerRadius=0.25mm|HoleSize=0mm|Usage=FLASHONLY|Rotation=180.000|XOffset=0mm|YOffset=0mm|HoleType=Round|Shape=RoundedRectangle|*
%AMROUNDEDRECTD79*
21,1,1.4000,1.9000,0,0,180.0*
21,1,0.9000,2.4000,0,0,180.0*
1,1,0.5000,-0.4500,0.9500*
1,1,0.5000,0.4500,0.9500*
1,1,0.5000,0.4500,-0.9500*
1,1,0.5000,-0.4500,-0.9500*
%
%ADD79ROUNDEDRECTD79*%
G04:AMPARAMS|DCode=80|XSize=1.1mm|YSize=1.9mm|CornerRadius=0.2125mm|HoleSize=0mm|Usage=FLASHONLY|Rotation=180.000|XOffset=0mm|YOffset=0mm|HoleType=Round|Shape=RoundedRectangle|*
%AMROUNDEDRECTD80*
21,1,1.1000,1.4750,0,0,180.0*
21,1,0.6750,1.9000,0,0,180.0*
1,1,0.4250,-0.3375,0.7375*
1,1,0.4250,0.3375,0.7375*
1,1,0.4250,0.3375,-0.7375*
1,1,0.4250,-0.3375,-0.7375*
%
%ADD80ROUNDEDRECTD80*%
%ADD81R,1.1000X1.0000*%
G04:AMPARAMS|DCode=82|XSize=1.2mm|YSize=1.1mm|CornerRadius=0.325mm|HoleSize=0mm|Usage=FLASHONLY|Rotation=180.000|XOffset=0mm|YOffset=0mm|HoleType=Round|Shape=RoundedRectangle|*
%AMROUNDEDRECTD82*
21,1,1.2000,0.4500,0,0,180.0*
21,1,0.5500,1.1000,0,0,180.0*
1,1,0.6500,-0.2750,0.2250*
1,1,0.6500,0.2750,0.2250*
1,1,0.6500,0.2750,-0.2250*
1,1,0.6500,-0.2750,-0.2250*
%
%ADD82ROUNDEDRECTD82*%
%ADD83O,1.1000X0.5000*%
%ADD84O,0.5000X1.1000*%
%ADD85R,3.6000X3.5000*%
G04:AMPARAMS|DCode=86|XSize=1.2mm|YSize=1.1mm|CornerRadius=0.325mm|HoleSize=0mm|Usage=FLASHONLY|Rotation=270.000|XOffset=0mm|YOffset=0mm|HoleType=Round|Shape=RoundedRectangle|*
%AMROUNDEDRECTD86*
21,1,1.2000,0.4500,0,0,270.0*
21,1,0.5500,1.1000,0,0,270.0*
1,1,0.6500,-0.2250,-0.2750*
1,1,0.6500,-0.2250,0.2750*
1,1,0.6500,0.2250,0.2750*
1,1,0.6500,0.2250,-0.2750*
%
%ADD86ROUNDEDRECTD86*%
%ADD87R,2.1000X1.3750*%
%ADD88R,2.1000X2.5750*%
%ADD89O,1.5800X0.6500*%
%ADD90R,2.3000X1.5750*%
%ADD91C,1.9000*%
%ADD92R,1.0000X0.6000*%
%ADD93R,1.8000X3.2000*%
%ADD94R,6.0000X6.4000*%
%ADD95R,1.9000X1.8000*%
%ADD96O,1.0000X0.5500*%
%ADD97O,0.5500X1.0000*%
%ADD98R,0.2000X0.2000*%
%ADD99R,0.2000X0.2000*%
%ADD100R,6.6000X6.6000*%
%ADD101R,1.5000X0.9000*%
G04:AMPARAMS|DCode=102|XSize=0.75mm|YSize=1.15mm|CornerRadius=0.1688mm|HoleSize=0mm|Usage=FLASHONLY|Rotation=270.000|XOffset=0mm|YOffset=0mm|HoleType=Round|Shape=RoundedRectangle|*
%AMROUNDEDRECTD102*
21,1,0.7500,0.8125,0,0,270.0*
21,1,0.4125,1.1500,0,0,270.0*
1,1,0.3375,-0.4063,-0.2062*
1,1,0.3375,-0.4063,0.2062*
1,1,0.3375,0.4063,0.2062*
1,1,0.3375,0.4063,-0.2062*
%
%ADD102ROUNDEDRECTD102*%
%ADD103R,0.6500X0.8000*%
G04:AMPARAMS|DCode=104|XSize=0.75mm|YSize=0.5mm|CornerRadius=0.1375mm|HoleSize=0mm|Usage=FLASHONLY|Rotation=180.000|XOffset=0mm|YOffset=0mm|HoleType=Round|Shape=RoundedRectangle|*
%AMROUNDEDRECTD104*
21,1,0.7500,0.2250,0,0,180.0*
21,1,0.4750,0.5000,0,0,180.0*
1,1,0.2750,-0.2375,0.1125*
1,1,0.2750,0.2375,0.1125*
1,1,0.2750,0.2375,-0.1125*
1,1,0.2750,-0.2375,-0.1125*
%
%ADD104ROUNDEDRECTD104*%
%ADD105R,0.8500X1.5500*%
%ADD106O,1.6000X0.8000*%
%ADD107C,1.8000*%
%ADD108R,1.8000X1.8000*%
%ADD109C,1.0890*%
%ADD110R,1.8000X1.8000*%
%ADD111O,4.7000X2.2000*%
%ADD112O,2.2000X4.7000*%
%ADD113C,1.4000*%
%ADD114C,3.3750*%
%ADD115C,2.2000*%
D35*
X385100Y102800D02*
D03*
Y252800D02*
D03*
D49*
X599000Y244000D02*
G03*
X607000Y236000I8000J0D01*
G01*
X615000Y260000D02*
G03*
X607000Y268000I-8000J0D01*
G01*
Y268000D02*
G03*
X599000Y260000I0J-8000D01*
G01*
X607000Y292000D02*
G03*
X615000Y300000I0J8000D01*
G01*
X599000Y300000D02*
G03*
X607000Y292000I8000J0D01*
G01*
Y324000D02*
G03*
X599000Y316000I0J-8000D01*
G01*
X607000Y236000D02*
X686000D01*
X599000Y244000D02*
Y260000D01*
X615000Y252000D02*
Y260000D01*
Y252000D02*
X686000D01*
X615000Y308000D02*
X686000D01*
X615000Y300000D02*
Y308000D01*
X599000Y300000D02*
Y316000D01*
X607000Y324000D02*
X686000D01*
D64*
X22790Y83820D02*
D03*
D70*
X583000Y414000D02*
D03*
Y368000D02*
D03*
X455000Y389000D02*
D03*
Y366000D02*
D03*
X190000Y20000D02*
D03*
X215000D02*
D03*
X630000Y49600D02*
D03*
Y75000D02*
D03*
D71*
X551000Y365250D02*
D03*
Y352750D02*
D03*
X538000Y365250D02*
D03*
Y352750D02*
D03*
X500000Y352750D02*
D03*
Y365250D02*
D03*
X500000Y396250D02*
D03*
Y383750D02*
D03*
X590000Y397250D02*
D03*
Y384750D02*
D03*
X577000D02*
D03*
Y397250D02*
D03*
X564000Y384750D02*
D03*
Y397250D02*
D03*
X551000D02*
D03*
Y384750D02*
D03*
X538000Y397250D02*
D03*
Y384750D02*
D03*
X500000Y415750D02*
D03*
Y428250D02*
D03*
X474000D02*
D03*
Y415750D02*
D03*
X487000Y428250D02*
D03*
Y415750D02*
D03*
Y383750D02*
D03*
Y396250D02*
D03*
X474000Y383750D02*
D03*
Y396250D02*
D03*
X474000Y365250D02*
D03*
Y352750D02*
D03*
X487000D02*
D03*
Y365250D02*
D03*
X525000Y428250D02*
D03*
Y415750D02*
D03*
X20000Y310750D02*
D03*
Y323250D02*
D03*
X274000Y459750D02*
D03*
Y472250D02*
D03*
X289000Y459750D02*
D03*
Y472250D02*
D03*
X253000Y242250D02*
D03*
Y229750D02*
D03*
X261000Y116750D02*
D03*
Y129250D02*
D03*
X363000Y261250D02*
D03*
Y248750D02*
D03*
X375000Y244750D02*
D03*
Y257250D02*
D03*
X625000Y140250D02*
D03*
Y127750D02*
D03*
Y112250D02*
D03*
Y99750D02*
D03*
X611000Y168250D02*
D03*
Y155750D02*
D03*
X625000D02*
D03*
Y168250D02*
D03*
X634000Y286250D02*
D03*
Y273750D02*
D03*
D72*
X512500Y349500D02*
D03*
X519000D02*
D03*
X525500D02*
D03*
Y368500D02*
D03*
X512500D02*
D03*
Y381500D02*
D03*
X519000D02*
D03*
X525500D02*
D03*
Y400500D02*
D03*
X512500D02*
D03*
X46500Y326500D02*
D03*
X40000D02*
D03*
X33500D02*
D03*
Y307500D02*
D03*
X46500D02*
D03*
D73*
X561150Y433000D02*
D03*
X538850D02*
D03*
X538850Y414000D02*
D03*
X561150D02*
D03*
X366850Y316000D02*
D03*
X389150D02*
D03*
D74*
X426000Y384000D02*
D03*
X406000Y374500D02*
D03*
Y393500D02*
D03*
X385000Y384000D02*
D03*
X365000Y374500D02*
D03*
Y393500D02*
D03*
X426000Y424000D02*
D03*
X406000Y414500D02*
D03*
Y433500D02*
D03*
X385000Y424000D02*
D03*
X365000Y414500D02*
D03*
Y433500D02*
D03*
X385000Y464000D02*
D03*
X365000Y454500D02*
D03*
Y473500D02*
D03*
X426000Y464000D02*
D03*
X406000Y454500D02*
D03*
Y473500D02*
D03*
X78000Y326500D02*
D03*
Y307500D02*
D03*
X98000Y317000D02*
D03*
D75*
X419100Y99800D02*
D03*
Y106300D02*
D03*
Y112800D02*
D03*
Y119300D02*
D03*
Y125800D02*
D03*
Y132300D02*
D03*
Y138800D02*
D03*
Y145300D02*
D03*
Y151800D02*
D03*
Y158300D02*
D03*
Y164800D02*
D03*
Y171300D02*
D03*
Y177800D02*
D03*
Y184300D02*
D03*
Y190800D02*
D03*
Y197300D02*
D03*
Y203800D02*
D03*
Y210300D02*
D03*
Y216800D02*
D03*
Y223300D02*
D03*
Y229800D02*
D03*
Y236300D02*
D03*
Y242800D02*
D03*
Y249300D02*
D03*
Y255800D02*
D03*
D76*
X459750Y300000D02*
D03*
X472250D02*
D03*
Y332000D02*
D03*
X459750D02*
D03*
X551750Y335000D02*
D03*
X564250D02*
D03*
X551750Y284000D02*
D03*
X564250D02*
D03*
X443250Y332000D02*
D03*
X430750D02*
D03*
X572750Y316000D02*
D03*
X585250D02*
D03*
X529250Y284000D02*
D03*
X516750D02*
D03*
X275250Y169000D02*
D03*
X262750D02*
D03*
X162500Y463750D02*
D03*
X175000D02*
D03*
X162500Y479250D02*
D03*
X175000D02*
D03*
X169250Y309000D02*
D03*
X156750D02*
D03*
Y296000D02*
D03*
X169250D02*
D03*
Y283000D02*
D03*
X156750D02*
D03*
X169250Y227000D02*
D03*
X156750D02*
D03*
X338250Y434000D02*
D03*
X325750D02*
D03*
X338250Y455000D02*
D03*
X325750D02*
D03*
X338250Y414000D02*
D03*
X325750D02*
D03*
X338250Y394000D02*
D03*
X325750D02*
D03*
X338250Y374000D02*
D03*
X325750D02*
D03*
X338250Y474000D02*
D03*
X325750D02*
D03*
X248250Y205000D02*
D03*
X235750D02*
D03*
X236257Y169000D02*
D03*
X248757D02*
D03*
X546750Y119000D02*
D03*
X559250D02*
D03*
X546750Y104000D02*
D03*
X559250D02*
D03*
X440750Y132000D02*
D03*
X453250D02*
D03*
Y119000D02*
D03*
X440750D02*
D03*
X453250Y106000D02*
D03*
X440750D02*
D03*
Y165000D02*
D03*
X453250D02*
D03*
X440750Y197000D02*
D03*
X453250D02*
D03*
Y210000D02*
D03*
X440750D02*
D03*
Y223000D02*
D03*
X453250D02*
D03*
Y249000D02*
D03*
X440750D02*
D03*
X453250Y236000D02*
D03*
X440750D02*
D03*
Y262000D02*
D03*
X453250D02*
D03*
X659250Y186000D02*
D03*
X646750D02*
D03*
X659250Y224000D02*
D03*
X646750D02*
D03*
D77*
X494250Y319750D02*
D03*
Y313250D02*
D03*
Y306750D02*
D03*
Y300250D02*
D03*
X551750Y319750D02*
D03*
Y313250D02*
D03*
Y306750D02*
D03*
Y300250D02*
D03*
X494250Y268750D02*
D03*
Y262250D02*
D03*
Y255750D02*
D03*
Y249250D02*
D03*
X551750Y268750D02*
D03*
Y262250D02*
D03*
Y255750D02*
D03*
Y249250D02*
D03*
D78*
X409500Y311500D02*
D03*
Y320500D02*
D03*
X472500D02*
D03*
Y311500D02*
D03*
X195500Y182500D02*
D03*
Y191500D02*
D03*
X258500D02*
D03*
Y182500D02*
D03*
D79*
X419000Y347000D02*
D03*
D80*
X369000D02*
D03*
D81*
X20320Y506090D02*
D03*
Y489590D02*
D03*
D82*
Y446160D02*
D03*
Y463160D02*
D03*
X62000Y308500D02*
D03*
Y325500D02*
D03*
X15000Y181500D02*
D03*
Y198500D02*
D03*
X197000Y84500D02*
D03*
Y101500D02*
D03*
X261000D02*
D03*
Y84500D02*
D03*
D83*
X113000Y404000D02*
D03*
Y399000D02*
D03*
Y394000D02*
D03*
Y389000D02*
D03*
Y384000D02*
D03*
Y379000D02*
D03*
Y374000D02*
D03*
X161000D02*
D03*
Y379000D02*
D03*
Y384000D02*
D03*
Y389000D02*
D03*
Y394000D02*
D03*
Y399000D02*
D03*
Y404000D02*
D03*
D84*
X122000Y365000D02*
D03*
X127000D02*
D03*
X132000D02*
D03*
X137000D02*
D03*
X142000D02*
D03*
X147000D02*
D03*
X152000D02*
D03*
Y413000D02*
D03*
X147000D02*
D03*
X142000D02*
D03*
X137000D02*
D03*
X132000D02*
D03*
X127000D02*
D03*
X122000D02*
D03*
D85*
X137000Y389000D02*
D03*
D86*
X79500Y374000D02*
D03*
X96500D02*
D03*
X79500Y358000D02*
D03*
X96500D02*
D03*
Y342000D02*
D03*
X79500D02*
D03*
X124500Y192000D02*
D03*
X107500D02*
D03*
X157500D02*
D03*
X140500D02*
D03*
X65160Y139700D02*
D03*
X82160D02*
D03*
D87*
X14478Y389000D02*
D03*
Y373000D02*
D03*
D88*
Y410000D02*
D03*
Y352000D02*
D03*
D89*
X40478Y381000D02*
D03*
Y387500D02*
D03*
Y368000D02*
D03*
Y374500D02*
D03*
Y394000D02*
D03*
D90*
X37478Y406000D02*
D03*
Y356000D02*
D03*
D91*
X25000Y25000D02*
D03*
X610000Y350000D02*
D03*
D92*
X156000Y266000D02*
D03*
X170000Y271000D02*
D03*
Y261000D02*
D03*
X156000Y244000D02*
D03*
X170000Y249000D02*
D03*
Y239000D02*
D03*
D93*
X35520Y165240D02*
D03*
X81320D02*
D03*
D94*
X58420Y229740D02*
D03*
D95*
X151540Y165100D02*
D03*
X107540D02*
D03*
D96*
X346000Y213500D02*
D03*
Y220000D02*
D03*
Y226500D02*
D03*
Y233000D02*
D03*
Y239500D02*
D03*
Y246000D02*
D03*
Y252500D02*
D03*
Y259000D02*
D03*
Y265500D02*
D03*
Y272000D02*
D03*
Y278500D02*
D03*
X266000D02*
D03*
Y272000D02*
D03*
Y265500D02*
D03*
Y259000D02*
D03*
Y252500D02*
D03*
Y246000D02*
D03*
Y239500D02*
D03*
Y233000D02*
D03*
Y226500D02*
D03*
Y220000D02*
D03*
Y213500D02*
D03*
D97*
X338500Y286000D02*
D03*
X332000D02*
D03*
X325500D02*
D03*
X319000D02*
D03*
X312500D02*
D03*
X306000D02*
D03*
X299500D02*
D03*
X293000D02*
D03*
X286500D02*
D03*
X280000D02*
D03*
X273500D02*
D03*
Y206000D02*
D03*
X280000D02*
D03*
X286500D02*
D03*
X293000D02*
D03*
X299500D02*
D03*
X306000D02*
D03*
X312500D02*
D03*
X319000D02*
D03*
X325500D02*
D03*
X332000D02*
D03*
X338500D02*
D03*
D98*
X314500Y246000D02*
D03*
X297500D02*
D03*
X309500D02*
D03*
X302500D02*
D03*
D99*
X306000Y237500D02*
D03*
Y254500D02*
D03*
Y242500D02*
D03*
Y249500D02*
D03*
D100*
Y246000D02*
D03*
D101*
X217000Y101500D02*
D03*
Y92000D02*
D03*
Y82500D02*
D03*
X241000D02*
D03*
Y101500D02*
D03*
D102*
X643000Y152750D02*
D03*
Y140250D02*
D03*
Y127500D02*
D03*
Y115250D02*
D03*
X663000Y152750D02*
D03*
Y140500D02*
D03*
X663000Y127500D02*
D03*
Y115250D02*
D03*
D103*
X648000Y295500D02*
D03*
X658000D02*
D03*
X668000D02*
D03*
Y264500D02*
D03*
X658000D02*
D03*
X648000D02*
D03*
D104*
X662750Y212500D02*
D03*
X643250D02*
D03*
Y206000D02*
D03*
Y199500D02*
D03*
X662750D02*
D03*
Y206000D02*
D03*
D105*
X653000D02*
D03*
D106*
X111700Y281700D02*
D03*
Y291700D02*
D03*
Y301700D02*
D03*
Y271700D02*
D03*
Y261700D02*
D03*
Y241700D02*
D03*
Y231700D02*
D03*
X130940D02*
D03*
Y241700D02*
D03*
Y261700D02*
D03*
Y271700D02*
D03*
Y281700D02*
D03*
Y291700D02*
D03*
Y301700D02*
D03*
D107*
X289560Y508000D02*
D03*
X238760D02*
D03*
X264160D02*
D03*
X213360D02*
D03*
X314960D02*
D03*
X340360D02*
D03*
X365760D02*
D03*
X391160D02*
D03*
X416560D02*
D03*
X635000Y482600D02*
D03*
X609600D02*
D03*
X584200D02*
D03*
X482600D02*
D03*
X533400D02*
D03*
X508000D02*
D03*
X558800D02*
D03*
X635000Y508000D02*
D03*
X609600D02*
D03*
X584200D02*
D03*
X482600D02*
D03*
X533400D02*
D03*
X508000D02*
D03*
X558800D02*
D03*
X50800D02*
D03*
Y482600D02*
D03*
X76200Y508000D02*
D03*
Y482600D02*
D03*
X457200Y25400D02*
D03*
X431800D02*
D03*
X406400D02*
D03*
X304800D02*
D03*
X355600D02*
D03*
X330200D02*
D03*
X381000D02*
D03*
X635000D02*
D03*
X533400D02*
D03*
X584200D02*
D03*
X558800D02*
D03*
X609600D02*
D03*
X187150Y403300D02*
D03*
Y377900D02*
D03*
Y428700D02*
D03*
Y352500D02*
D03*
Y155500D02*
D03*
Y130100D02*
D03*
D108*
X187960Y508000D02*
D03*
X457200Y482600D02*
D03*
Y508000D02*
D03*
X279400Y25400D02*
D03*
X508000D02*
D03*
D109*
X268160Y405200D02*
D03*
X247840D02*
D03*
X258000Y456000D02*
D03*
D110*
X50800Y457200D02*
D03*
X76200D02*
D03*
D111*
X97790Y36820D02*
D03*
D112*
X67790Y83820D02*
D03*
X127790D02*
D03*
D113*
X620000Y418000D02*
D03*
Y398000D02*
D03*
D114*
X139700Y25400D02*
D03*
X660400Y355600D02*
D03*
X152400Y508000D02*
D03*
X660400Y76200D02*
D03*
D115*
X196850Y216700D02*
D03*
Y316700D02*
D03*
M02*
